<mxfile host="app.diagrams.net" agent="Mozilla/5.0 (Windows NT 10.0; Win64; x64) AppleWebKit/537.36 (KHTML, like Gecko) Chrome/134.0.0.0 Safari/537.36" version="26.2.2">
  <diagram id="R2lEEEUBdFMjLlhIrx00" name="Page-1">
    <mxGraphModel dx="2143" dy="859" grid="1" gridSize="10" guides="1" tooltips="1" connect="1" arrows="1" fold="1" page="1" pageScale="1" pageWidth="1920" pageHeight="1080" math="0" shadow="0" extFonts="Permanent Marker^https://fonts.googleapis.com/css?family=Permanent+Marker">
      <root>
        <mxCell id="0" />
        <mxCell id="1" parent="0" />
        <mxCell id="-svoxVY9ocmbRA-tjolU-8" style="edgeStyle=orthogonalEdgeStyle;rounded=0;orthogonalLoop=1;jettySize=auto;html=1;exitX=1;exitY=0.5;exitDx=0;exitDy=0;fillColor=#dae8fc;strokeColor=#6c8ebf;" parent="1" source="-svoxVY9ocmbRA-tjolU-1" target="-svoxVY9ocmbRA-tjolU-5" edge="1">
          <mxGeometry relative="1" as="geometry" />
        </mxCell>
        <mxCell id="-svoxVY9ocmbRA-tjolU-11" style="edgeStyle=orthogonalEdgeStyle;rounded=0;orthogonalLoop=1;jettySize=auto;html=1;exitX=0.75;exitY=0;exitDx=0;exitDy=0;entryX=0.5;entryY=1;entryDx=0;entryDy=0;fillColor=#dae8fc;strokeColor=#6c8ebf;" parent="1" source="-svoxVY9ocmbRA-tjolU-1" target="-svoxVY9ocmbRA-tjolU-10" edge="1">
          <mxGeometry relative="1" as="geometry">
            <Array as="points">
              <mxPoint x="770" y="250" />
            </Array>
          </mxGeometry>
        </mxCell>
        <mxCell id="-svoxVY9ocmbRA-tjolU-13" style="edgeStyle=orthogonalEdgeStyle;rounded=0;orthogonalLoop=1;jettySize=auto;html=1;exitX=0.25;exitY=0;exitDx=0;exitDy=0;entryX=0.5;entryY=1;entryDx=0;entryDy=0;fillColor=#dae8fc;strokeColor=#6c8ebf;" parent="1" source="-svoxVY9ocmbRA-tjolU-1" target="-svoxVY9ocmbRA-tjolU-12" edge="1">
          <mxGeometry relative="1" as="geometry">
            <Array as="points">
              <mxPoint x="683" y="250" />
            </Array>
          </mxGeometry>
        </mxCell>
        <mxCell id="-svoxVY9ocmbRA-tjolU-14" style="edgeStyle=orthogonalEdgeStyle;rounded=0;orthogonalLoop=1;jettySize=auto;html=1;exitX=0;exitY=0.5;exitDx=0;exitDy=0;entryX=0.5;entryY=1;entryDx=0;entryDy=0;fillColor=#dae8fc;strokeColor=#6c8ebf;" parent="1" source="-svoxVY9ocmbRA-tjolU-1" target="-svoxVY9ocmbRA-tjolU-15" edge="1">
          <mxGeometry relative="1" as="geometry">
            <mxPoint x="620" y="220" as="targetPoint" />
          </mxGeometry>
        </mxCell>
        <mxCell id="-svoxVY9ocmbRA-tjolU-34" style="edgeStyle=orthogonalEdgeStyle;rounded=0;orthogonalLoop=1;jettySize=auto;html=1;exitX=0.75;exitY=1;exitDx=0;exitDy=0;entryX=0;entryY=0.5;entryDx=0;entryDy=0;fillColor=#dae8fc;strokeColor=#6c8ebf;" parent="1" source="-svoxVY9ocmbRA-tjolU-1" target="-svoxVY9ocmbRA-tjolU-31" edge="1">
          <mxGeometry relative="1" as="geometry" />
        </mxCell>
        <mxCell id="-svoxVY9ocmbRA-tjolU-1" value="Producto" style="rounded=0;whiteSpace=wrap;html=1;fillColor=#dae8fc;strokeColor=#6c8ebf;" parent="1" vertex="1">
          <mxGeometry x="670" y="250" width="120" height="60" as="geometry" />
        </mxCell>
        <mxCell id="-svoxVY9ocmbRA-tjolU-5" value="Stock" style="ellipse;whiteSpace=wrap;html=1;fillColor=#dae8fc;strokeColor=#6c8ebf;" parent="1" vertex="1">
          <mxGeometry x="810" y="180" width="80" height="40" as="geometry" />
        </mxCell>
        <mxCell id="-svoxVY9ocmbRA-tjolU-10" value="Nombre" style="ellipse;whiteSpace=wrap;html=1;fillColor=#dae8fc;strokeColor=#6c8ebf;" parent="1" vertex="1">
          <mxGeometry x="730" y="150" width="80" height="40" as="geometry" />
        </mxCell>
        <mxCell id="-svoxVY9ocmbRA-tjolU-12" value="Precio" style="ellipse;whiteSpace=wrap;html=1;fillColor=#dae8fc;strokeColor=#6c8ebf;" parent="1" vertex="1">
          <mxGeometry x="643" y="150" width="80" height="40" as="geometry" />
        </mxCell>
        <mxCell id="-svoxVY9ocmbRA-tjolU-15" value="idProducto" style="ellipse;whiteSpace=wrap;html=1;fillColor=#dae8fc;strokeColor=#6c8ebf;" parent="1" vertex="1">
          <mxGeometry x="560" y="180" width="80" height="40" as="geometry" />
        </mxCell>
        <mxCell id="-svoxVY9ocmbRA-tjolU-28" style="edgeStyle=orthogonalEdgeStyle;rounded=0;orthogonalLoop=1;jettySize=auto;html=1;exitX=1;exitY=0.5;exitDx=0;exitDy=0;entryX=0.5;entryY=1;entryDx=0;entryDy=0;fillColor=#dae8fc;strokeColor=#6c8ebf;" parent="1" source="-svoxVY9ocmbRA-tjolU-16" target="-svoxVY9ocmbRA-tjolU-17" edge="1">
          <mxGeometry relative="1" as="geometry" />
        </mxCell>
        <mxCell id="-svoxVY9ocmbRA-tjolU-30" style="edgeStyle=orthogonalEdgeStyle;rounded=0;orthogonalLoop=1;jettySize=auto;html=1;exitX=0;exitY=0.5;exitDx=0;exitDy=0;entryX=0.5;entryY=1;entryDx=0;entryDy=0;fillColor=#dae8fc;strokeColor=#6c8ebf;" parent="1" source="-svoxVY9ocmbRA-tjolU-16" target="-svoxVY9ocmbRA-tjolU-1" edge="1">
          <mxGeometry relative="1" as="geometry" />
        </mxCell>
        <mxCell id="-svoxVY9ocmbRA-tjolU-16" value="tiene" style="rhombus;whiteSpace=wrap;html=1;fillColor=#dae8fc;strokeColor=#6c8ebf;" parent="1" vertex="1">
          <mxGeometry x="960" y="310" width="110" height="60" as="geometry" />
        </mxCell>
        <mxCell id="-svoxVY9ocmbRA-tjolU-24" style="edgeStyle=orthogonalEdgeStyle;rounded=0;orthogonalLoop=1;jettySize=auto;html=1;exitX=1;exitY=0;exitDx=0;exitDy=0;entryX=0.5;entryY=1;entryDx=0;entryDy=0;fillColor=#dae8fc;strokeColor=#6c8ebf;" parent="1" source="-svoxVY9ocmbRA-tjolU-17" target="-svoxVY9ocmbRA-tjolU-20" edge="1">
          <mxGeometry relative="1" as="geometry" />
        </mxCell>
        <mxCell id="-svoxVY9ocmbRA-tjolU-25" style="edgeStyle=orthogonalEdgeStyle;rounded=0;orthogonalLoop=1;jettySize=auto;html=1;exitX=0.75;exitY=0;exitDx=0;exitDy=0;entryX=0.5;entryY=1;entryDx=0;entryDy=0;fillColor=#dae8fc;strokeColor=#6c8ebf;" parent="1" source="-svoxVY9ocmbRA-tjolU-17" target="-svoxVY9ocmbRA-tjolU-19" edge="1">
          <mxGeometry relative="1" as="geometry" />
        </mxCell>
        <mxCell id="-svoxVY9ocmbRA-tjolU-26" style="edgeStyle=orthogonalEdgeStyle;rounded=0;orthogonalLoop=1;jettySize=auto;html=1;exitX=0.25;exitY=0;exitDx=0;exitDy=0;entryX=0.5;entryY=1;entryDx=0;entryDy=0;fillColor=#dae8fc;strokeColor=#6c8ebf;" parent="1" source="-svoxVY9ocmbRA-tjolU-17" target="-svoxVY9ocmbRA-tjolU-22" edge="1">
          <mxGeometry relative="1" as="geometry" />
        </mxCell>
        <mxCell id="-svoxVY9ocmbRA-tjolU-27" style="edgeStyle=orthogonalEdgeStyle;rounded=0;orthogonalLoop=1;jettySize=auto;html=1;exitX=0;exitY=0;exitDx=0;exitDy=0;entryX=0.5;entryY=1;entryDx=0;entryDy=0;fillColor=#dae8fc;strokeColor=#6c8ebf;" parent="1" source="-svoxVY9ocmbRA-tjolU-17" target="-svoxVY9ocmbRA-tjolU-21" edge="1">
          <mxGeometry relative="1" as="geometry" />
        </mxCell>
        <mxCell id="-svoxVY9ocmbRA-tjolU-29" style="edgeStyle=orthogonalEdgeStyle;rounded=0;orthogonalLoop=1;jettySize=auto;html=1;exitX=0.75;exitY=1;exitDx=0;exitDy=0;entryX=0;entryY=0.5;entryDx=0;entryDy=0;fillColor=#dae8fc;strokeColor=#6c8ebf;" parent="1" source="-svoxVY9ocmbRA-tjolU-17" target="-svoxVY9ocmbRA-tjolU-18" edge="1">
          <mxGeometry relative="1" as="geometry" />
        </mxCell>
        <mxCell id="-svoxVY9ocmbRA-tjolU-17" value="Proveedor" style="rounded=0;whiteSpace=wrap;html=1;fillColor=#dae8fc;strokeColor=#6c8ebf;" parent="1" vertex="1">
          <mxGeometry x="1200" y="160" width="120" height="60" as="geometry" />
        </mxCell>
        <mxCell id="-svoxVY9ocmbRA-tjolU-18" value="Direccion" style="ellipse;whiteSpace=wrap;html=1;fillColor=#dae8fc;strokeColor=#6c8ebf;" parent="1" vertex="1">
          <mxGeometry x="1430" y="220" width="80" height="40" as="geometry" />
        </mxCell>
        <mxCell id="-svoxVY9ocmbRA-tjolU-19" value="Web" style="ellipse;whiteSpace=wrap;html=1;fillColor=#dae8fc;strokeColor=#6c8ebf;" parent="1" vertex="1">
          <mxGeometry x="1270" y="80" width="80" height="40" as="geometry" />
        </mxCell>
        <mxCell id="-svoxVY9ocmbRA-tjolU-20" value="Telefono" style="ellipse;whiteSpace=wrap;html=1;fillColor=#dae8fc;strokeColor=#6c8ebf;" parent="1" vertex="1">
          <mxGeometry x="1370" y="80" width="80" height="40" as="geometry" />
        </mxCell>
        <mxCell id="-svoxVY9ocmbRA-tjolU-21" value="NIP" style="ellipse;whiteSpace=wrap;html=1;fillColor=#dae8fc;strokeColor=#6c8ebf;" parent="1" vertex="1">
          <mxGeometry x="1070" y="80" width="80" height="40" as="geometry" />
        </mxCell>
        <mxCell id="-svoxVY9ocmbRA-tjolU-22" value="Nombre" style="ellipse;whiteSpace=wrap;html=1;fillColor=#dae8fc;strokeColor=#6c8ebf;" parent="1" vertex="1">
          <mxGeometry x="1170" y="80" width="80" height="40" as="geometry" />
        </mxCell>
        <mxCell id="hAT-umhpLl2JNJFuaA0R-10" style="edgeStyle=orthogonalEdgeStyle;rounded=0;orthogonalLoop=1;jettySize=auto;html=1;exitX=1;exitY=0.5;exitDx=0;exitDy=0;entryX=0.25;entryY=0;entryDx=0;entryDy=0;fillColor=#dae8fc;strokeColor=#6c8ebf;" edge="1" parent="1" source="-svoxVY9ocmbRA-tjolU-31" target="hAT-umhpLl2JNJFuaA0R-1">
          <mxGeometry relative="1" as="geometry" />
        </mxCell>
        <mxCell id="-svoxVY9ocmbRA-tjolU-31" value="se clasifica" style="rhombus;whiteSpace=wrap;html=1;fillColor=#dae8fc;strokeColor=#6c8ebf;" parent="1" vertex="1">
          <mxGeometry x="990" y="440" width="110" height="60" as="geometry" />
        </mxCell>
        <mxCell id="hAT-umhpLl2JNJFuaA0R-5" style="edgeStyle=orthogonalEdgeStyle;rounded=0;orthogonalLoop=1;jettySize=auto;html=1;exitX=1;exitY=0.25;exitDx=0;exitDy=0;entryX=0;entryY=0.5;entryDx=0;entryDy=0;fillColor=#dae8fc;strokeColor=#6c8ebf;" edge="1" parent="1" source="hAT-umhpLl2JNJFuaA0R-1" target="hAT-umhpLl2JNJFuaA0R-2">
          <mxGeometry relative="1" as="geometry" />
        </mxCell>
        <mxCell id="hAT-umhpLl2JNJFuaA0R-6" style="edgeStyle=orthogonalEdgeStyle;rounded=0;orthogonalLoop=1;jettySize=auto;html=1;exitX=1;exitY=0.5;exitDx=0;exitDy=0;entryX=0;entryY=0.5;entryDx=0;entryDy=0;fillColor=#dae8fc;strokeColor=#6c8ebf;" edge="1" parent="1" source="hAT-umhpLl2JNJFuaA0R-1" target="hAT-umhpLl2JNJFuaA0R-3">
          <mxGeometry relative="1" as="geometry" />
        </mxCell>
        <mxCell id="hAT-umhpLl2JNJFuaA0R-7" style="edgeStyle=orthogonalEdgeStyle;rounded=0;orthogonalLoop=1;jettySize=auto;html=1;exitX=1;exitY=0.75;exitDx=0;exitDy=0;entryX=0;entryY=0.5;entryDx=0;entryDy=0;fillColor=#dae8fc;strokeColor=#6c8ebf;" edge="1" parent="1" source="hAT-umhpLl2JNJFuaA0R-1" target="hAT-umhpLl2JNJFuaA0R-4">
          <mxGeometry relative="1" as="geometry" />
        </mxCell>
        <mxCell id="hAT-umhpLl2JNJFuaA0R-1" value="Categoria" style="rounded=0;whiteSpace=wrap;html=1;fillColor=#dae8fc;strokeColor=#6c8ebf;" vertex="1" parent="1">
          <mxGeometry x="1100" y="530" width="120" height="60" as="geometry" />
        </mxCell>
        <mxCell id="hAT-umhpLl2JNJFuaA0R-2" value="idCategoria" style="ellipse;whiteSpace=wrap;html=1;fillColor=#dae8fc;strokeColor=#6c8ebf;" vertex="1" parent="1">
          <mxGeometry x="1250" y="480" width="80" height="40" as="geometry" />
        </mxCell>
        <mxCell id="hAT-umhpLl2JNJFuaA0R-3" value="Nombre" style="ellipse;whiteSpace=wrap;html=1;fillColor=#dae8fc;strokeColor=#6c8ebf;" vertex="1" parent="1">
          <mxGeometry x="1280" y="540" width="80" height="40" as="geometry" />
        </mxCell>
        <mxCell id="hAT-umhpLl2JNJFuaA0R-4" value="Descripción" style="ellipse;whiteSpace=wrap;html=1;fillColor=#dae8fc;strokeColor=#6c8ebf;" vertex="1" parent="1">
          <mxGeometry x="1250" y="600" width="80" height="40" as="geometry" />
        </mxCell>
        <mxCell id="hAT-umhpLl2JNJFuaA0R-24" style="edgeStyle=orthogonalEdgeStyle;rounded=0;orthogonalLoop=1;jettySize=auto;html=1;exitX=0.5;exitY=0;exitDx=0;exitDy=0;entryX=1;entryY=0.5;entryDx=0;entryDy=0;fillColor=#dae8fc;strokeColor=#6c8ebf;" edge="1" parent="1" source="hAT-umhpLl2JNJFuaA0R-11" target="hAT-umhpLl2JNJFuaA0R-19">
          <mxGeometry relative="1" as="geometry" />
        </mxCell>
        <mxCell id="hAT-umhpLl2JNJFuaA0R-25" style="edgeStyle=orthogonalEdgeStyle;rounded=0;orthogonalLoop=1;jettySize=auto;html=1;exitX=0;exitY=0.25;exitDx=0;exitDy=0;entryX=1;entryY=0.5;entryDx=0;entryDy=0;fillColor=#dae8fc;strokeColor=#6c8ebf;" edge="1" parent="1" source="hAT-umhpLl2JNJFuaA0R-11" target="hAT-umhpLl2JNJFuaA0R-20">
          <mxGeometry relative="1" as="geometry" />
        </mxCell>
        <mxCell id="hAT-umhpLl2JNJFuaA0R-26" style="edgeStyle=orthogonalEdgeStyle;rounded=0;orthogonalLoop=1;jettySize=auto;html=1;exitX=0;exitY=0.75;exitDx=0;exitDy=0;entryX=1;entryY=0.5;entryDx=0;entryDy=0;fillColor=#dae8fc;strokeColor=#6c8ebf;" edge="1" parent="1" source="hAT-umhpLl2JNJFuaA0R-11" target="hAT-umhpLl2JNJFuaA0R-21">
          <mxGeometry relative="1" as="geometry" />
        </mxCell>
        <mxCell id="hAT-umhpLl2JNJFuaA0R-27" style="edgeStyle=orthogonalEdgeStyle;rounded=0;orthogonalLoop=1;jettySize=auto;html=1;exitX=0.25;exitY=1;exitDx=0;exitDy=0;entryX=1;entryY=0.5;entryDx=0;entryDy=0;fillColor=#dae8fc;strokeColor=#6c8ebf;" edge="1" parent="1" source="hAT-umhpLl2JNJFuaA0R-11" target="hAT-umhpLl2JNJFuaA0R-22">
          <mxGeometry relative="1" as="geometry" />
        </mxCell>
        <mxCell id="hAT-umhpLl2JNJFuaA0R-11" value="Venta" style="rounded=0;whiteSpace=wrap;html=1;fillColor=#dae8fc;strokeColor=#6c8ebf;" vertex="1" parent="1">
          <mxGeometry x="280" y="360" width="120" height="60" as="geometry" />
        </mxCell>
        <mxCell id="hAT-umhpLl2JNJFuaA0R-47" style="edgeStyle=orthogonalEdgeStyle;rounded=0;orthogonalLoop=1;jettySize=auto;html=1;exitX=1;exitY=0.5;exitDx=0;exitDy=0;entryX=0;entryY=1;entryDx=0;entryDy=0;fillColor=#dae8fc;strokeColor=#6c8ebf;" edge="1" parent="1" source="hAT-umhpLl2JNJFuaA0R-12" target="hAT-umhpLl2JNJFuaA0R-36">
          <mxGeometry relative="1" as="geometry" />
        </mxCell>
        <mxCell id="hAT-umhpLl2JNJFuaA0R-48" style="edgeStyle=orthogonalEdgeStyle;rounded=0;orthogonalLoop=1;jettySize=auto;html=1;exitX=0.75;exitY=1;exitDx=0;exitDy=0;entryX=0;entryY=0.5;entryDx=0;entryDy=0;fillColor=#dae8fc;strokeColor=#6c8ebf;" edge="1" parent="1" source="hAT-umhpLl2JNJFuaA0R-12" target="hAT-umhpLl2JNJFuaA0R-37">
          <mxGeometry relative="1" as="geometry" />
        </mxCell>
        <mxCell id="hAT-umhpLl2JNJFuaA0R-49" style="edgeStyle=orthogonalEdgeStyle;rounded=0;orthogonalLoop=1;jettySize=auto;html=1;exitX=0.5;exitY=1;exitDx=0;exitDy=0;entryX=0;entryY=0.5;entryDx=0;entryDy=0;fillColor=#dae8fc;strokeColor=#6c8ebf;" edge="1" parent="1" source="hAT-umhpLl2JNJFuaA0R-12" target="hAT-umhpLl2JNJFuaA0R-38">
          <mxGeometry relative="1" as="geometry" />
        </mxCell>
        <mxCell id="hAT-umhpLl2JNJFuaA0R-12" value="Cliente" style="rounded=0;whiteSpace=wrap;html=1;fillColor=#dae8fc;strokeColor=#6c8ebf;" vertex="1" parent="1">
          <mxGeometry x="603" y="530" width="120" height="60" as="geometry" />
        </mxCell>
        <mxCell id="hAT-umhpLl2JNJFuaA0R-15" style="edgeStyle=orthogonalEdgeStyle;rounded=0;orthogonalLoop=1;jettySize=auto;html=1;exitX=1;exitY=0.5;exitDx=0;exitDy=0;entryX=0;entryY=1;entryDx=0;entryDy=0;fillColor=#dae8fc;strokeColor=#6c8ebf;" edge="1" parent="1" source="hAT-umhpLl2JNJFuaA0R-13" target="-svoxVY9ocmbRA-tjolU-1">
          <mxGeometry relative="1" as="geometry" />
        </mxCell>
        <mxCell id="hAT-umhpLl2JNJFuaA0R-17" style="edgeStyle=orthogonalEdgeStyle;rounded=0;orthogonalLoop=1;jettySize=auto;html=1;exitX=0;exitY=0.5;exitDx=0;exitDy=0;entryX=0.5;entryY=1;entryDx=0;entryDy=0;fillColor=#dae8fc;strokeColor=#6c8ebf;" edge="1" parent="1" source="hAT-umhpLl2JNJFuaA0R-13" target="hAT-umhpLl2JNJFuaA0R-16">
          <mxGeometry relative="1" as="geometry" />
        </mxCell>
        <mxCell id="hAT-umhpLl2JNJFuaA0R-18" style="edgeStyle=orthogonalEdgeStyle;rounded=0;orthogonalLoop=1;jettySize=auto;html=1;exitX=0.5;exitY=1;exitDx=0;exitDy=0;entryX=1;entryY=0.5;entryDx=0;entryDy=0;fillColor=#dae8fc;strokeColor=#6c8ebf;" edge="1" parent="1" source="hAT-umhpLl2JNJFuaA0R-13" target="hAT-umhpLl2JNJFuaA0R-11">
          <mxGeometry relative="1" as="geometry" />
        </mxCell>
        <mxCell id="hAT-umhpLl2JNJFuaA0R-32" style="edgeStyle=orthogonalEdgeStyle;rounded=0;orthogonalLoop=1;jettySize=auto;html=1;exitX=1;exitY=1;exitDx=0;exitDy=0;entryX=0;entryY=0;entryDx=0;entryDy=0;fillColor=#dae8fc;strokeColor=#6c8ebf;" edge="1" parent="1" source="hAT-umhpLl2JNJFuaA0R-13" target="hAT-umhpLl2JNJFuaA0R-29">
          <mxGeometry relative="1" as="geometry" />
        </mxCell>
        <mxCell id="hAT-umhpLl2JNJFuaA0R-33" style="edgeStyle=orthogonalEdgeStyle;rounded=0;orthogonalLoop=1;jettySize=auto;html=1;exitX=1;exitY=1;exitDx=0;exitDy=0;entryX=0;entryY=0;entryDx=0;entryDy=0;fillColor=#dae8fc;strokeColor=#6c8ebf;" edge="1" parent="1" source="hAT-umhpLl2JNJFuaA0R-13" target="hAT-umhpLl2JNJFuaA0R-30">
          <mxGeometry relative="1" as="geometry" />
        </mxCell>
        <mxCell id="hAT-umhpLl2JNJFuaA0R-13" value="participa" style="rhombus;whiteSpace=wrap;html=1;fillColor=#dae8fc;strokeColor=#6c8ebf;" vertex="1" parent="1">
          <mxGeometry x="480" y="300" width="110" height="60" as="geometry" />
        </mxCell>
        <mxCell id="hAT-umhpLl2JNJFuaA0R-16" value="cantidad_unidad" style="ellipse;whiteSpace=wrap;html=1;fillColor=#dae8fc;strokeColor=#6c8ebf;" vertex="1" parent="1">
          <mxGeometry x="400" y="210" width="110" height="40" as="geometry" />
        </mxCell>
        <mxCell id="hAT-umhpLl2JNJFuaA0R-19" value="monto_final" style="ellipse;whiteSpace=wrap;html=1;fillColor=#dae8fc;strokeColor=#6c8ebf;" vertex="1" parent="1">
          <mxGeometry x="140" y="280" width="100" height="40" as="geometry" />
        </mxCell>
        <mxCell id="hAT-umhpLl2JNJFuaA0R-20" value="n-factura" style="ellipse;whiteSpace=wrap;html=1;fillColor=#dae8fc;strokeColor=#6c8ebf;" vertex="1" parent="1">
          <mxGeometry x="140" y="340" width="100" height="40" as="geometry" />
        </mxCell>
        <mxCell id="hAT-umhpLl2JNJFuaA0R-21" value="descuento" style="ellipse;whiteSpace=wrap;html=1;fillColor=#dae8fc;strokeColor=#6c8ebf;" vertex="1" parent="1">
          <mxGeometry x="140" y="400" width="100" height="40" as="geometry" />
        </mxCell>
        <mxCell id="hAT-umhpLl2JNJFuaA0R-22" value="fecha" style="ellipse;whiteSpace=wrap;html=1;fillColor=#dae8fc;strokeColor=#6c8ebf;" vertex="1" parent="1">
          <mxGeometry x="140" y="460" width="100" height="40" as="geometry" />
        </mxCell>
        <mxCell id="hAT-umhpLl2JNJFuaA0R-34" style="edgeStyle=orthogonalEdgeStyle;rounded=0;orthogonalLoop=1;jettySize=auto;html=1;exitX=0;exitY=0.5;exitDx=0;exitDy=0;entryX=0.5;entryY=1;entryDx=0;entryDy=0;fillColor=#dae8fc;strokeColor=#6c8ebf;" edge="1" parent="1" source="hAT-umhpLl2JNJFuaA0R-28" target="hAT-umhpLl2JNJFuaA0R-11">
          <mxGeometry relative="1" as="geometry" />
        </mxCell>
        <mxCell id="hAT-umhpLl2JNJFuaA0R-35" style="edgeStyle=orthogonalEdgeStyle;rounded=0;orthogonalLoop=1;jettySize=auto;html=1;exitX=0.5;exitY=1;exitDx=0;exitDy=0;entryX=0;entryY=0.5;entryDx=0;entryDy=0;fillColor=#dae8fc;strokeColor=#6c8ebf;" edge="1" parent="1" source="hAT-umhpLl2JNJFuaA0R-28" target="hAT-umhpLl2JNJFuaA0R-12">
          <mxGeometry relative="1" as="geometry" />
        </mxCell>
        <mxCell id="hAT-umhpLl2JNJFuaA0R-28" value="compra" style="rhombus;whiteSpace=wrap;html=1;fillColor=#dae8fc;strokeColor=#6c8ebf;" vertex="1" parent="1">
          <mxGeometry x="430" y="470" width="110" height="60" as="geometry" />
        </mxCell>
        <mxCell id="hAT-umhpLl2JNJFuaA0R-29" value="venta unidad" style="ellipse;whiteSpace=wrap;html=1;fillColor=#dae8fc;strokeColor=#6c8ebf;" vertex="1" parent="1">
          <mxGeometry x="628" y="360" width="110" height="40" as="geometry" />
        </mxCell>
        <mxCell id="hAT-umhpLl2JNJFuaA0R-30" value="monto total" style="ellipse;whiteSpace=wrap;html=1;fillColor=#dae8fc;strokeColor=#6c8ebf;" vertex="1" parent="1">
          <mxGeometry x="570" y="410" width="110" height="40" as="geometry" />
        </mxCell>
        <mxCell id="hAT-umhpLl2JNJFuaA0R-36" value="Nombre" style="ellipse;whiteSpace=wrap;html=1;fillColor=#dae8fc;strokeColor=#6c8ebf;" vertex="1" parent="1">
          <mxGeometry x="760" y="530" width="80" height="40" as="geometry" />
        </mxCell>
        <mxCell id="hAT-umhpLl2JNJFuaA0R-37" value="NIP" style="ellipse;whiteSpace=wrap;html=1;fillColor=#dae8fc;strokeColor=#6c8ebf;" vertex="1" parent="1">
          <mxGeometry x="760" y="600" width="80" height="40" as="geometry" />
        </mxCell>
        <mxCell id="hAT-umhpLl2JNJFuaA0R-50" style="edgeStyle=orthogonalEdgeStyle;rounded=0;orthogonalLoop=1;jettySize=auto;html=1;exitX=0;exitY=1;exitDx=0;exitDy=0;entryX=1;entryY=0.5;entryDx=0;entryDy=0;fillColor=#dae8fc;strokeColor=#6c8ebf;" edge="1" parent="1" source="hAT-umhpLl2JNJFuaA0R-38" target="hAT-umhpLl2JNJFuaA0R-41">
          <mxGeometry relative="1" as="geometry" />
        </mxCell>
        <mxCell id="hAT-umhpLl2JNJFuaA0R-51" style="edgeStyle=orthogonalEdgeStyle;rounded=0;orthogonalLoop=1;jettySize=auto;html=1;exitX=0.5;exitY=1;exitDx=0;exitDy=0;entryX=1;entryY=0;entryDx=0;entryDy=0;fillColor=#dae8fc;strokeColor=#6c8ebf;" edge="1" parent="1" source="hAT-umhpLl2JNJFuaA0R-38" target="hAT-umhpLl2JNJFuaA0R-42">
          <mxGeometry relative="1" as="geometry" />
        </mxCell>
        <mxCell id="hAT-umhpLl2JNJFuaA0R-52" style="edgeStyle=orthogonalEdgeStyle;rounded=0;orthogonalLoop=1;jettySize=auto;html=1;exitX=0.5;exitY=1;exitDx=0;exitDy=0;entryX=0.5;entryY=0;entryDx=0;entryDy=0;fillColor=#dae8fc;strokeColor=#6c8ebf;" edge="1" parent="1" source="hAT-umhpLl2JNJFuaA0R-38" target="hAT-umhpLl2JNJFuaA0R-43">
          <mxGeometry relative="1" as="geometry" />
        </mxCell>
        <mxCell id="hAT-umhpLl2JNJFuaA0R-54" style="edgeStyle=orthogonalEdgeStyle;rounded=0;orthogonalLoop=1;jettySize=auto;html=1;exitX=1;exitY=1;exitDx=0;exitDy=0;entryX=0;entryY=0.5;entryDx=0;entryDy=0;fillColor=#dae8fc;strokeColor=#6c8ebf;" edge="1" parent="1" source="hAT-umhpLl2JNJFuaA0R-38" target="hAT-umhpLl2JNJFuaA0R-44">
          <mxGeometry relative="1" as="geometry" />
        </mxCell>
        <mxCell id="hAT-umhpLl2JNJFuaA0R-38" value="Direccion" style="ellipse;whiteSpace=wrap;html=1;fillColor=#dae8fc;strokeColor=#6c8ebf;" vertex="1" parent="1">
          <mxGeometry x="760" y="670" width="80" height="40" as="geometry" />
        </mxCell>
        <mxCell id="hAT-umhpLl2JNJFuaA0R-39" value="Telefono" style="ellipse;whiteSpace=wrap;html=1;fillColor=#dae8fc;strokeColor=#6c8ebf;" vertex="1" parent="1">
          <mxGeometry x="563" y="660" width="80" height="40" as="geometry" />
        </mxCell>
        <mxCell id="hAT-umhpLl2JNJFuaA0R-41" value="ciudad" style="ellipse;whiteSpace=wrap;html=1;fillColor=#dae8fc;strokeColor=#6c8ebf;" vertex="1" parent="1">
          <mxGeometry x="623" y="740" width="80" height="40" as="geometry" />
        </mxCell>
        <mxCell id="hAT-umhpLl2JNJFuaA0R-42" value="comuna" style="ellipse;whiteSpace=wrap;html=1;fillColor=#dae8fc;strokeColor=#6c8ebf;" vertex="1" parent="1">
          <mxGeometry x="690" y="800" width="80" height="40" as="geometry" />
        </mxCell>
        <mxCell id="hAT-umhpLl2JNJFuaA0R-43" value="numero" style="ellipse;whiteSpace=wrap;html=1;fillColor=#dae8fc;strokeColor=#6c8ebf;" vertex="1" parent="1">
          <mxGeometry x="800" y="800" width="80" height="40" as="geometry" />
        </mxCell>
        <mxCell id="hAT-umhpLl2JNJFuaA0R-44" value="calle" style="ellipse;whiteSpace=wrap;html=1;fillColor=#dae8fc;strokeColor=#6c8ebf;" vertex="1" parent="1">
          <mxGeometry x="910" y="740" width="80" height="40" as="geometry" />
        </mxCell>
        <mxCell id="hAT-umhpLl2JNJFuaA0R-46" style="edgeStyle=orthogonalEdgeStyle;rounded=0;orthogonalLoop=1;jettySize=auto;html=1;exitX=0.5;exitY=1;exitDx=0;exitDy=0;entryX=0.97;entryY=0.27;entryDx=0;entryDy=0;entryPerimeter=0;fillColor=#dae8fc;strokeColor=#6c8ebf;" edge="1" parent="1" source="hAT-umhpLl2JNJFuaA0R-12" target="hAT-umhpLl2JNJFuaA0R-39">
          <mxGeometry relative="1" as="geometry" />
        </mxCell>
        <mxCell id="hAT-umhpLl2JNJFuaA0R-55" value="(1:N)" style="text;html=1;align=center;verticalAlign=middle;whiteSpace=wrap;rounded=0;" vertex="1" parent="1">
          <mxGeometry x="920" y="440" width="60" height="30" as="geometry" />
        </mxCell>
        <mxCell id="hAT-umhpLl2JNJFuaA0R-56" value="(1:1)" style="text;html=1;align=center;verticalAlign=middle;whiteSpace=wrap;rounded=0;" vertex="1" parent="1">
          <mxGeometry x="1070" y="500" width="60" height="30" as="geometry" />
        </mxCell>
        <mxCell id="hAT-umhpLl2JNJFuaA0R-57" value="(1:N)" style="text;html=1;align=center;verticalAlign=middle;whiteSpace=wrap;rounded=0;" vertex="1" parent="1">
          <mxGeometry x="530" y="530" width="60" height="30" as="geometry" />
        </mxCell>
        <mxCell id="hAT-umhpLl2JNJFuaA0R-58" value="(1:N)" style="text;html=1;align=center;verticalAlign=middle;whiteSpace=wrap;rounded=0;" vertex="1" parent="1">
          <mxGeometry x="610" y="300" width="60" height="30" as="geometry" />
        </mxCell>
        <mxCell id="hAT-umhpLl2JNJFuaA0R-59" value="(1:N)" style="text;html=1;align=center;verticalAlign=middle;whiteSpace=wrap;rounded=0;" vertex="1" parent="1">
          <mxGeometry x="1200" y="220" width="60" height="30" as="geometry" />
        </mxCell>
        <mxCell id="hAT-umhpLl2JNJFuaA0R-60" value="(1:1)" style="text;html=1;align=center;verticalAlign=middle;whiteSpace=wrap;rounded=0;" vertex="1" parent="1">
          <mxGeometry x="800" y="310" width="60" height="30" as="geometry" />
        </mxCell>
        <mxCell id="hAT-umhpLl2JNJFuaA0R-61" value="(0:N)" style="text;html=1;align=center;verticalAlign=middle;whiteSpace=wrap;rounded=0;" vertex="1" parent="1">
          <mxGeometry x="340" y="470" width="60" height="30" as="geometry" />
        </mxCell>
      </root>
    </mxGraphModel>
  </diagram>
</mxfile>
